grf
version=1
nRows=10
nColumns=28
inDegrees=no
endheader
time	ground_force_1_vx	ground_force_1_vy	ground_force_1_vz	ground_force_1_px	ground_force_1_py	ground_force_1_pz	ground_moment_1_mx	ground_moment_1_my	ground_moment_1_mz	ground_force_2_vx	ground_force_2_vy	ground_force_2_vz	ground_force_2_px	ground_force_2_py	ground_force_2_pz	ground_moment_2_mx	ground_moment_2_my	ground_moment_2_mz	ground_force_3_vx	ground_force_3_vy	ground_force_3_vz	ground_force_3_px	ground_force_3_py	ground_force_3_pz	ground_moment_3_mx	ground_moment_3_my	ground_moment_3_mz
      0.30000000	      0.44445228	      0.15724734	      0.55451305	    155.89428612	  -1411.18405197	      2.38275990	     -0.08826980	     -0.31918473	   -174.89604297	      0.61806964	      0.45870734	      1.37246141	   -145.25923028	  -1293.07769938	      0.48967534	     -0.03792861	     -0.49052834	    587.78707078	      8.75269875	    -59.37912548	   -100.69261813	    476.56431770	   -507.93562020	      0.84827983	      0.01306420	     -0.09596867	    -46.73099966
      0.31000000	      0.27218902	      0.23854531	      1.20017921	    223.97358469	  -1214.01233801	      1.98856262	     -0.00526800	     -0.01904916	    -10.43791360	      0.64905512	      0.48703452	      1.43550161	    -65.80187667	  -1309.37653248	      0.48120061	     -0.03747842	     -0.48470602	    580.81034428	     -0.88680507	    -37.34875584	    -39.10875688	    493.26929970	   -519.85577167	      0.87742961	     -0.12206002	      0.89664398	    436.61195304
      0.32000000	      0.46673521	      0.24622739	      0.60543892	    -30.78215013	  -1297.63567114	      2.26974981	     -0.01690866	     -0.06114195	    -33.50249514	      0.26021963	      0.23716652	      1.49081495	    -21.56007363	  -1303.71482575	      0.48878033	     -0.01476511	     -0.19095621	    228.81775236	     -2.51636034	    -14.30194822	    -11.41590598	    524.65344263	   -594.24926376	      1.03898091	     -0.25985535	      1.90887839	    929.50952232
      0.33000000	      0.39355791	      0.09610826	      0.86784120	    190.56274744	  -1129.80647717	      1.85174959	     -0.05805438	     -0.20992538	   -115.02780698	      0.44781845	      0.32990937	      2.04567095	    101.88527588	  -1473.79676297	      0.35480681	     -0.01748794	     -0.22617049	    271.01408610	      1.77098549	     -0.50144648	      5.23024924	    459.73127942	   -295.66022250	      0.40763661	     -0.15713821	      1.15432578	    562.08756366
      0.34000000	      0.39115728	      0.07808105	      1.36706026	    309.58198166	  -1328.41084950	      2.15413310	     -0.06915937	     -0.25008117	   -137.03101727	      0.65491659	      0.36541135	      1.06986178	   -311.17388840	  -1080.09007338	      0.65671466	     -0.04970008	     -0.64276801	    770.21182758	      1.90251240	     -0.16354477	      5.23992436	    448.81982747	   -283.24354039	      0.37908678	     -0.16132673	      1.18509436	    577.07002273
      0.35000000	      0.24260998	      0.11706865	      0.79228527	    245.02612046	  -1325.97356800	      2.18226632	     -0.06297134	     -0.22770518	   -124.77017845	      0.54016329	      0.37952526	      1.63397862	     17.83800690	  -1329.30198847	      0.46996924	     -0.02724786	     -0.35239483	    422.26536388	      1.65891679	     -0.37648640	      5.09972277	    460.36238723	   -320.64525197	      0.45912331	     -0.14493048	      1.06464872	    518.42020519
      0.36000000	      0.45553298	      0.20155043	      1.34243574	    254.70318028	  -1204.90726214	      1.95643670	     -0.02522242	     -0.09120460	    -49.97520803	      0.56899418	      0.36935127	      1.75768184	     43.36240334	  -1456.65979173	      0.36533185	     -0.02464914	     -0.31878573	    381.99247278	      1.90583140	     -0.27529162	      4.87300388	    465.16665890	   -250.57606225	      0.31656948	     -0.21284787	      1.56356493	    761.36253436
      0.37000000	      0.27174341	      0.05886277	      1.32672240	    273.98426480	  -1193.00840897	      1.92499019	     -0.06881972	     -0.24885298	   -136.35803446	      0.19544386	      0.34608674	      1.86563068	     83.72197999	  -1427.66485494	      0.39213342	     -0.01294767	     -0.16745145	    200.65262362	      1.83811850	     -0.76127811	      5.44609710	    456.14398967	   -286.50328024	      0.38782867	     -0.19847183	      1.45795958	    709.93905053
      0.38000000	      0.34161573	      0.13600059	      1.31695398	    257.99241759	  -1318.54707248	      2.16216892	     -0.06653693	     -0.24059841	   -131.83497501	      0.34801905	      0.37463858	      2.38461282	    152.49393811	  -1541.65506488	      0.30144241	     -0.01814333	     -0.23464661	    281.17079957	      1.73142424	     -0.47708059	      5.20852691	    450.18805817	   -303.62495869	      0.42132539	     -0.17291472	      1.27021887	    618.52056253
      0.39000000	      0.43646739	      0.25792952	      1.17315188	    220.40746492	  -1271.80696621	      2.09583745	     -0.05992025	     -0.21667238	   -118.72479918	      0.69701374	      0.24281430	      1.76998107	     50.41752399	  -1379.59572656	      0.43009969	     -0.02703604	     -0.34965538	    418.98274576	      1.80566678	     -0.77599936	      5.62468581	    433.91127213	   -336.83755911	      0.48498177	     -0.13697375	      1.00619919	    489.95877960
